/* XPM */
static char * coin_xpm[] = {
"30 25 322 2",
"  	c #000000",
". 	c #0E0E08",
"+ 	c #6C6E34",
"@ 	c #ABAC46",
"# 	c #DAD75A",
"$ 	c #EFEB5A",
"% 	c #E1DE4D",
"& 	c #BFBB52",
"* 	c #8D8E3E",
"= 	c #26261C",
"- 	c #6C6B33",
"; 	c #EFEB59",
"> 	c #FFF750",
", 	c #FAEF4D",
"' 	c #F6E14B",
") 	c #EFD743",
"! 	c #F2DA46",
"~ 	c #F8E84A",
"{ 	c #FEF64D",
"] 	c #FFFA59",
"^ 	c #A6A548",
"/ 	c #1F1F0B",
"( 	c #0C0C06",
"_ 	c #A6A43E",
": 	c #FFF553",
"< 	c #F6E24B",
"[ 	c #F0D34B",
"} 	c #F4DD52",
"| 	c #FBEB59",
"1 	c #FEF157",
"2 	c #FEEE53",
"3 	c #F7E24F",
"4 	c #F0D546",
"5 	c #F2DA48",
"6 	c #FEF549",
"7 	c #DFDC49",
"8 	c #2B2C11",
"9 	c #ACA939",
"0 	c #FFEF4C",
"a 	c #F0D447",
"b 	c #F7E15A",
"c 	c #FFF260",
"d 	c #FFF35E",
"e 	c #FFF25A",
"f 	c #FEEE55",
"g 	c #FFF154",
"h 	c #FFF353",
"i 	c #FFF352",
"j 	c #FEEF52",
"k 	c #EBCD41",
"l 	c #F8E844",
"m 	c #F2ED48",
"n 	c #2E2E10",
"o 	c #777227",
"p 	c #FFED48",
"q 	c #EDCE44",
"r 	c #FBE45F",
"s 	c #FFEE62",
"t 	c #FFED61",
"u 	c #FFED5D",
"v 	c #FBE659",
"w 	c #FEF156",
"x 	c #F9E754",
"y 	c #FFEC54",
"z 	c #FFEE53",
"A 	c #FFEE52",
"B 	c #FFEE4C",
"C 	c #ECCC3F",
"D 	c #FAE643",
"E 	c #D8CD3D",
"F 	c #090904",
"G 	c #1C1A09",
"H 	c #EADA45",
"I 	c #F7D843",
"J 	c #F8DB58",
"K 	c #FFEB61",
"L 	c #FFE961",
"M 	c #FFEA61",
"N 	c #FFEA5E",
"O 	c #F8E152",
"P 	c #FFF557",
"Q 	c #F8EB52",
"R 	c #FCE658",
"S 	c #FFEC56",
"T 	c #FFEB51",
"U 	c #FFE94B",
"V 	c #FFE749",
"W 	c #EDC53D",
"X 	c #FFE741",
"Y 	c #7D7321",
"Z 	c #6C6420",
"` 	c #FFE243",
" .	c #EFC645",
"..	c #FFE558",
"+.	c #FFE45B",
"@.	c #FFE45C",
"#.	c #FFE65E",
"$.	c #FADF5A",
"%.	c #FEE84C",
"&.	c #FFEF54",
"*.	c #FFEF52",
"=.	c #F8DF52",
"-.	c #FFE657",
";.	c #FFE551",
">.	c #FFE44B",
",.	c #FFE34A",
"'.	c #F6D242",
").	c #F8D23F",
"!.	c #E3CC3E",
"~.	c #020201",
"{.	c #C6AF35",
"].	c #FDD641",
"^.	c #F2CB48",
"/.	c #FEDE53",
"(.	c #FADC55",
"_.	c #FCE156",
":.	c #FDE153",
"<.	c #F9E34F",
"[.	c #FFE64D",
"}.	c #FFE84F",
"|.	c #FAE54F",
"1.	c #FDE555",
"2.	c #FBE051",
"3.	c #FCDC4E",
"4.	c #FDDB48",
"5.	c #FFDC46",
"6.	c #EFC039",
"7.	c #FFD93E",
"8.	c #2F2A0F",
"9.	c #F1CE3C",
"0.	c #F1C338",
"a.	c #FED74C",
"b.	c #FCD44C",
"c.	c #FAD448",
"d.	c #FFDE49",
"e.	c #FFDD48",
"f.	c #FFDF4A",
"g.	c #FFE04B",
"h.	c #FED847",
"i.	c #F6CA43",
"j.	c #FFD645",
"k.	c #EFBD3D",
"l.	c #FFD23B",
"m.	c #5F4F17",
"n.	c #0D0B06",
"o.	c #FED23A",
"p.	c #F6C33B",
"q.	c #FED249",
"r.	c #F9CD4A",
"s.	c #FBCE47",
"t.	c #FFD544",
"u.	c #FFD444",
"v.	c #FFD745",
"w.	c #FFD644",
"x.	c #FFD746",
"y.	c #FDCF41",
"z.	c #F4C341",
"A.	c #FDCE46",
"B.	c #FFD044",
"C.	c #EEB73B",
"D.	c #FECB39",
"E.	c #6C591D",
"F.	c #070604",
"G.	c #FCCC38",
"H.	c #F2BE39",
"I.	c #FDCC42",
"J.	c #FECC44",
"K.	c #FFCE48",
"L.	c #F9C74A",
"M.	c #F8C23F",
"N.	c #FFCC41",
"O.	c #FFCD40",
"P.	c #FFCD42",
"Q.	c #FFC93F",
"R.	c #F1B941",
"S.	c #FDCA4A",
"T.	c #FDC947",
"U.	c #FEC942",
"V.	c #EAB138",
"W.	c #FDC537",
"X.	c #675219",
"Y.	c #E0B131",
"Z.	c #F3BC38",
"`.	c #F9C03D",
" +	c #FEC63F",
".+	c #FEC743",
"++	c #FEC948",
"@+	c #F5B73D",
"#+	c #FFC33C",
"$+	c #FFC23D",
"%+	c #FFC43D",
"&+	c #FFC53D",
"*+	c #FFC23E",
"=+	c #FBB93A",
"-+	c #F5BE48",
";+	c #FDC649",
">+	c #FCC345",
",+	c #FDC444",
"'+	c #EDB13A",
")+	c #FCBF34",
"!+	c #4C3D11",
"~+	c #A88326",
"{+	c #FDC236",
"]+	c #E6AC34",
"^+	c #FDC03B",
"/+	c #FDC03D",
"(+	c #FBBF40",
"_+	c #F4B036",
":+	c #FFBA39",
"<+	c #FFB939",
"[+	c #FFBB39",
"}+	c #FEB638",
"|+	c #FCB437",
"1+	c #EFB443",
"2+	c #FBC048",
"3+	c #FBBF44",
"4+	c #F9BC41",
"5+	c #EEAD36",
"6+	c #FCB832",
"7+	c #161006",
"8+	c #43330F",
"9+	c #FDBD32",
"0+	c #E6A932",
"a+	c #FAB636",
"b+	c #FBB838",
"c+	c #F4AF37",
"d+	c #F6AA31",
"e+	c #FDAE33",
"f+	c #EFA32E",
"g+	c #E8A434",
"h+	c #ECA233",
"i+	c #FAAC33",
"j+	c #F9AC32",
"k+	c #EBA83D",
"l+	c #F9BA47",
"m+	c #FAB944",
"n+	c #E0A335",
"o+	c #F8B336",
"p+	c #B98727",
"q+	c #C79329",
"r+	c #FAB734",
"s+	c #EAA936",
"t+	c #F9AF33",
"u+	c #EEA42E",
"v+	c #E79729",
"w+	c #DC8F26",
"x+	c #EFAC39",
"y+	c #F9B73E",
"z+	c #F4B13E",
"A+	c #E09730",
"B+	c #E3922D",
"C+	c #E39A34",
"D+	c #F8B546",
"E+	c #EDAA3D",
"F+	c #F2B240",
"G+	c #F8AB2E",
"H+	c #332710",
"I+	c #34250D",
"J+	c #FCB42F",
"K+	c #EFA42D",
"L+	c #E49C2E",
"M+	c #F4A82F",
"N+	c #EFA42F",
"O+	c #F3A932",
"P+	c #F4AC35",
"Q+	c #F4AB35",
"R+	c #F2A737",
"S+	c #F1A838",
"T+	c #F0A739",
"U+	c #F3AB3C",
"V+	c #E9A53B",
"W+	c #D99531",
"X+	c #F2A22B",
"Y+	c #8C601B",
"Z+	c #6A4B18",
"`+	c #FAA22B",
" @	c #ECA02B",
".@	c #E2A234",
"+@	c #E59527",
"@@	c #F1A42D",
"#@	c #F1A52F",
"$@	c #F0A12F",
"%@	c #EFA031",
"&@	c #EFA232",
"*@	c #ECA235",
"=@	c #DE9932",
"-@	c #E4A037",
";@	c #EE9A27",
">@	c #B67A27",
",@	c #0C0804",
"'@	c #503715",
")@	c #E3982B",
"!@	c #F39B28",
"~@	c #EFAC3C",
"{@	c #DF9D34",
"]@	c #E0992F",
"^@	c #E39E35",
"/@	c #DE9A34",
"(@	c #DE9935",
"_@	c #E09834",
":@	c #EA9A2C",
"<@	c #EE9625",
"[@	c #96621D",
"}@	c #080704",
"|@	c #1D1206",
"1@	c #93621A",
"2@	c #DC9328",
"3@	c #ED9C27",
"4@	c #E48D22",
"5@	c #E28A22",
"6@	c #E48A22",
"7@	c #E68D22",
"8@	c #E78F23",
"9@	c #B26E1C",
"0@	c #3E270B",
"a@	c #010101",
"b@	c #442C0E",
"c@	c #6B4112",
"d@	c #7E5016",
"e@	c #744915",
"f@	c #59360E",
"g@	c #140C05",
"                                                            ",
"                                                            ",
"                                                            ",
"                      . + @ # $ % & * =                     ",
"                    - ; > , ' ) ! ~ { ] ^ /                 ",
"                ( _ : < [ } | 1 2 3 4 5 6 7 8               ",
"                9 0 a b c d e f g h i j k l m n             ",
"              o p q r s t u v w x y z A B C D E F           ",
"            G H I J K L M N O P Q R S T U V W X Y           ",
"            Z `  ...+.@.#.$.%.&.*.=.-.;.>.,.'.).!.~.        ",
"            {.].^./.(._.:.<.[.}.}.|.1.2.3.4.5.6.7.8.        ",
"            9.0.a.b.c.d.d.e.f.f.f.g.f.d.h.i.j.k.l.m.        ",
"          n.o.p.q.q.r.s.t.u.v.w.x.x.t.y.z.A.B.C.D.E.        ",
"          F.G.H.I.J.K.L.M.N.N.O.P.P.Q.R.S.T.U.V.W.X.        ",
"            Y.Z.`. +.+++@+#+$+%+&+*+=+-+;+>+,+'+)+!+        ",
"            ~+{+]+^+/+(+_+:+<+[+:+}+|+1+2+3+4+5+6+7+        ",
"            8+9+0+a+b+c+d+e+f+g+h+i+j+k+l+m+n+o+p+          ",
"              q+r+s+t+u+v+w+x+y+z+A+B+C+D+E+F+G+H+          ",
"              I+J+K+L+M+N+O+P+Q+R+S+T+U+V+W+X+Y+            ",
"                Z+`+ @.@+@@@#@$@%@&@*@=@-@;@>@,@            ",
"                  '@)@!@~@{@]@^@/@(@_@:@<@[@}@              ",
"                    |@1@2@3@4@5@6@7@8@9@0@                  ",
"                        a@b@c@d@e@f@g@                      ",
"                                                            ",
"                                                            "};
