/* XPM */
static char * coin_xpm[] = {
"30 30 416 2",
"  	c #000000",
". 	c #1F2016",
"+ 	c #747441",
"@ 	c #A5A447",
"# 	c #C4C456",
"$ 	c #CECC5C",
"% 	c #BDBC48",
"& 	c #898843",
"* 	c #555531",
"= 	c #010101",
"- 	c #38381B",
"; 	c #BEBE50",
"> 	c #FEFA5B",
", 	c #FFF750",
"' 	c #FFF651",
") 	c #FEF34F",
"! 	c #FDF24A",
"~ 	c #FEF54E",
"{ 	c #FFF74E",
"] 	c #FEF949",
"^ 	c #E6E361",
"/ 	c #69693E",
"( 	c #040402",
"_ 	c #7E7F34",
": 	c #FBF652",
"< 	c #FEF44F",
"[ 	c #F7E44B",
"} 	c #EED348",
"| 	c #F0D64D",
"1 	c #EFD44C",
"2 	c #EFD34A",
"3 	c #EFD449",
"4 	c #EDD146",
"5 	c #F2D947",
"6 	c #FCF14D",
"7 	c #FEF94D",
"8 	c #DBDA49",
"9 	c #212113",
"0 	c #979539",
"a 	c #FFF44F",
"b 	c #F9E74A",
"c 	c #EFD14B",
"d 	c #F7DF56",
"e 	c #FFF35F",
"f 	c #FFF45B",
"g 	c #FFF557",
"h 	c #FFF454",
"i 	c #FFF555",
"j 	c #FFF452",
"k 	c #FBEB4F",
"l 	c #EED346",
"m 	c #F0D743",
"n 	c #FFF647",
"o 	c #E8E54B",
"p 	c #2C2C12",
"q 	c #827F2F",
"r 	c #FEF04E",
"s 	c #F6DF45",
"t 	c #EFD04F",
"u 	c #FEEF62",
"v 	c #FFF25F",
"w 	c #FFF05E",
"x 	c #FFEF5C",
"y 	c #FEEB59",
"z 	c #FCEB58",
"A 	c #FEEF55",
"B 	c #FFF051",
"C 	c #FFF153",
"D 	c #FFF353",
"E 	c #F9E44C",
"F 	c #E8C83E",
"G 	c #FEF345",
"H 	c #E5DE46",
"I 	c #1E1C0B",
"J 	c #3A3917",
"K 	c #FFED48",
"L 	c #F9E046",
"M 	c #EECD4F",
"N 	c #FFED64",
"O 	c #FFEE62",
"P 	c #FFEC61",
"Q 	c #FFEC5E",
"R 	c #FEEA5C",
"S 	c #F9E752",
"T 	c #FCF456",
"U 	c #F8E453",
"V 	c #FFEC54",
"W 	c #FFED53",
"X 	c #FFED51",
"Y 	c #FFED4D",
"Z 	c #FBE449",
"` 	c #E8C63B",
" .	c #FFED42",
"..	c #BBB137",
"+.	c #CFC13E",
"@.	c #FFE645",
"#.	c #ECC545",
"$.	c #FEE95F",
"%.	c #FFEA61",
"&.	c #FFE960",
"*.	c #FFEB5E",
"=.	c #FAE258",
"-.	c #FDEF51",
";.	c #FFF658",
">.	c #F7E452",
",.	c #FEEA58",
"'.	c #FFEC55",
").	c #FFEB51",
"!.	c #FFE94B",
"~.	c #FFE848",
"{.	c #F5D444",
"].	c #F4D43F",
"^.	c #FFE842",
"/.	c #433D12",
"(.	c #353212",
"_.	c #FFE643",
":.	c #F6D340",
"<.	c #F7D653",
"[.	c #FFE659",
"}.	c #FFE45C",
"|.	c #FFE55D",
"1.	c #FFE75E",
"2.	c #FEE65D",
"3.	c #FBE14F",
"4.	c #FFEF51",
"5.	c #FFF055",
"6.	c #FDEB50",
"7.	c #F8DE55",
"8.	c #FFE756",
"9.	c #FFE652",
"0.	c #FFE44B",
"a.	c #FFE34A",
"b.	c #FFE349",
"c.	c #EABF3B",
"d.	c #FFDE40",
"e.	c #B4A332",
"f.	c #847724",
"g.	c #FFDE41",
"h.	c #F0C341",
"i.	c #FFE053",
"j.	c #FEDE54",
"k.	c #FAD955",
"l.	c #FBDF5A",
"m.	c #FDE65B",
"n.	c #F9E054",
"o.	c #FEE44B",
"p.	c #FFE951",
"q.	c #FFEA50",
"r.	c #FCE755",
"s.	c #FCE458",
"t.	c #FBE154",
"u.	c #FCDC51",
"v.	c #FDD849",
"w.	c #FFDE47",
"x.	c #F4C83F",
"y.	c #F8CF3C",
"z.	c #FCDB3C",
"A.	c #080704",
"B.	c #BDA430",
"C.	c #FFD63E",
"D.	c #F1C142",
"E.	c #FFDB4E",
"F.	c #F9D04C",
"G.	c #FFDF4B",
"H.	c #FFDF49",
"I.	c #FFE14A",
"J.	c #FFE04A",
"K.	c #FFE04B",
"L.	c #FFE24C",
"M.	c #FFE34C",
"N.	c #FFE24A",
"O.	c #FFDF4A",
"P.	c #FEDF49",
"Q.	c #FBD648",
"R.	c #FED646",
"S.	c #FCD343",
"T.	c #EFBD37",
"U.	c #FFD53D",
"V.	c #3D3513",
"W.	c #E2C039",
"X.	c #FDD03B",
"Y.	c #F3C343",
"Z.	c #FFD64B",
"`.	c #FBD04B",
" +	c #F4C846",
".+	c #FFD948",
"++	c #FFDA46",
"@+	c #FFD845",
"#+	c #FFDA47",
"$+	c #FFDB48",
"%+	c #FFDB47",
"&+	c #FFD946",
"*+	c #FACD40",
"=+	c #F4C444",
"-+	c #FFD245",
";+	c #FED146",
">+	c #F0BA38",
",+	c #FFCF39",
"'+	c #66541A",
")+	c #EBC138",
"!+	c #FECE3C",
"~+	c #F2BF3F",
"{+	c #FFD147",
"]+	c #FED048",
"^+	c #FBCD49",
"/+	c #F6C445",
"(+	c #FFD043",
"_+	c #FFCF43",
":+	c #FFD244",
"<+	c #FFD042",
"[+	c #FFD343",
"}+	c #FFD344",
"|+	c #FFCF41",
"1+	c #FCC73F",
"2+	c #F5C046",
"3+	c #FECD48",
"4+	c #FFCC44",
"5+	c #FECC45",
"6+	c #F1B837",
"7+	c #FEC838",
"8+	c #6D591B",
"9+	c #DCB232",
"0+	c #FDCA39",
"a+	c #EFBA3D",
"b+	c #FECB41",
"c+	c #FECA43",
"d+	c #FFCC49",
"e+	c #FCCB49",
"f+	c #F1B83E",
"g+	c #FFC940",
"h+	c #FFCA41",
"i+	c #FFCA40",
"j+	c #FBC23C",
"k+	c #F1BA44",
"l+	c #FECA4A",
"m+	c #FDC848",
"n+	c #FDC844",
"o+	c #FCC744",
"p+	c #F3BA3A",
"q+	c #FEC336",
"r+	c #544314",
"s+	c #A88526",
"t+	c #FDC537",
"u+	c #E9B237",
"v+	c #FEC43E",
"w+	c #FDC43F",
"x+	c #FDC642",
"y+	c #FEC747",
"z+	c #F0B13A",
"A+	c #FFC23B",
"B+	c #FFC03D",
"C+	c #FFC23C",
"D+	c #FFC43D",
"E+	c #FFC33D",
"F+	c #FFBF3D",
"G+	c #FCB93B",
"H+	c #F2BA47",
"I+	c #FDC549",
"J+	c #FBC346",
"K+	c #FDC344",
"L+	c #F3B83E",
"M+	c #EAAC31",
"N+	c #FBBF34",
"O+	c #2D240C",
"P+	c #6F5717",
"Q+	c #FDC134",
"R+	c #EAB137",
"S+	c #FABC3A",
"T+	c #FDBF3C",
"U+	c #FDC03D",
"V+	c #FBBD40",
"W+	c #F4AF35",
"X+	c #FFBA39",
"Y+	c #FFB738",
"Z+	c #FFB939",
"`+	c #FFB839",
" @	c #FEB537",
".@	c #FCB337",
"+@	c #EDB140",
"@@	c #FAC048",
"#@	c #F9BE45",
"$@	c #FCBF43",
"%@	c #E4AA37",
"&@	c #FAB837",
"*@	c #E8AE31",
"=@	c #171207",
"-@	c #F9BC32",
";@	c #F5B933",
">@	c #E1A52E",
",@	c #FBB837",
"'@	c #FBB839",
")@	c #F3AF38",
"!@	c #F6AA31",
"~@	c #FEB035",
"{@	c #FBAE32",
"]@	c #E79E2F",
"^@	c #E59F34",
"/@	c #F3A734",
"(@	c #FAAC32",
"_@	c #F9AC32",
":@	c #E8A63B",
"<@	c #F9B947",
"[@	c #FBBA44",
"}@	c #F8B742",
"|@	c #E8AA3B",
"1@	c #F7B030",
"2@	c #966F20",
"3@	c #A17A26",
"4@	c #FDB930",
"5@	c #EFB43F",
"6@	c #F4AE31",
"7@	c #F9B033",
"8@	c #EBA22F",
"9@	c #F9AA32",
"0@	c #E29228",
"a@	c #E39D31",
"b@	c #F7B43E",
"c@	c #F9B741",
"d@	c #E7A338",
"e@	c #DE932E",
"f@	c #EC9A2E",
"g@	c #E59A32",
"h@	c #F7B546",
"i@	c #F9B544",
"j@	c #D6982E",
"k@	c #F6AE35",
"l@	c #F7AC30",
"m@	c #211707",
"n@	c #171107",
"o@	c #E9AB2D",
"p@	c #FCB430",
"q@	c #E6AB3E",
"r@	c #F3A52E",
"s@	c #F3A830",
"t@	c #DE9227",
"u@	c #EFA432",
"v@	c #F5AF38",
"w@	c #F6B038",
"x@	c #F4AD39",
"y@	c #F3AA39",
"z@	c #F1AA3B",
"A@	c #E19933",
"B@	c #EAA339",
"C@	c #F4B241",
"D@	c #E6A742",
"E@	c #EDA736",
"F@	c #F4A52B",
"G@	c #7D581A",
"H@	c #503A14",
"I@	c #F7AB2E",
"J@	c #F9A830",
"K@	c #DE9D35",
"L@	c #E79C28",
"M@	c #F1A22D",
"N@	c #F3A62F",
"O@	c #F3A831",
"P@	c #F2A832",
"Q@	c #EFA434",
"R@	c #F1A635",
"S@	c #F3A738",
"T@	c #F0A738",
"U@	c #DD9C39",
"V@	c #EDA236",
"W@	c #F29E29",
"X@	c #B77926",
"Y@	c #050404",
"Z@	c #614418",
"`@	c #F6A02B",
" #	c #F9A92C",
".#	c #EBA73A",
"+#	c #DF9A35",
"@#	c #DF9525",
"##	c #EDA12C",
"$#	c #EE9F2D",
"%#	c #EC9B2C",
"&#	c #ED9E2F",
"*#	c #E89B31",
"=#	c #D6922F",
"-#	c #D89331",
";#	c #EB9E2F",
">#	c #ED9827",
",#	c #BD7C25",
"'#	c #100A04",
")#	c #2D200D",
"!#	c #D58D26",
"~#	c #F39B27",
"{#	c #F3A32C",
"]#	c #F0A93B",
"^#	c #E29A35",
"/#	c #D68E29",
"(#	c #D9902D",
"_#	c #D98C2C",
":#	c #E09934",
"<#	c #E5942C",
"[#	c #E99124",
"}#	c #ED9426",
"|#	c #7E5117",
"1#	c #0A0704",
"2#	c #020201",
"3#	c #5F3F11",
"4#	c #C48324",
"5#	c #EF9D28",
"6#	c #E58C21",
"7#	c #E38A21",
"8#	c #E38B22",
"9#	c #E68C22",
"0#	c #DB8722",
"a#	c #915D1E",
"b#	c #25180A",
"c#	c #1E1307",
"d#	c #4E300E",
"e#	c #5F3C12",
"f#	c #623E12",
"g#	c #5B370E",
"h#	c #37230B",
"i#	c #050403",
"                                                            ",
"                                                            ",
"                                                            ",
"                                                            ",
"                      . + @ # $ % & * =                     ",
"                  - ; > , ' ) ! ~ { ] ^ / (                 ",
"                _ : < [ } | 1 2 3 4 5 6 7 8 9               ",
"              0 a b c d e f g h i j k l m n o p             ",
"            q r s t u v w x y z A B C D E F G H I           ",
"          J K L M N O P Q R S T U V W X Y Z `  ...          ",
"          +.@.#.$.%.&.%.*.=.-.;.>.,.'.).!.~.{.].^./.        ",
"        (._.:.<.[.}.|.1.2.3.4.5.6.7.8.9.0.a.b.c.d.e.        ",
"        f.g.h.i.j.k.l.m.n.o.p.q.q.r.s.t.u.v.w.x.y.z.A.      ",
"        B.C.D.E.F.G.H.I.J.K.L.I.L.M.N.O.P.Q.R.S.T.U.V.      ",
"        W.X.Y.Z.`. +.+++@+#+#+#+$+%+&+@+*+=+-+;+>+,+'+      ",
"        )+!+~+{+]+^+/+(+_+:+<+[+}+}+|+1+2+3+4+5+6+7+8+      ",
"        9+0+a+b+c+d+e+f+g+h+g+i+i+g+j+k+l+m+n+o+p+q+r+      ",
"        s+t+u+v+w+x+y+z+A+B+C+D+E+F+G+H+I+J+K+L+M+N+O+      ",
"        P+Q+R+S+T+U+V+W+X+Y+Z+Z+`+ @.@+@@@#@$@%@&@*@        ",
"        =@-@;@>@,@'@)@!@~@{@]@^@/@(@_@:@<@[@}@|@1@2@        ",
"          3@4@5@6@7@8@9@0@a@b@c@d@e@f@g@h@i@j@k@l@m@        ",
"          n@o@p@q@r@s@t@u@v@w@x@y@z@A@B@C@D@E@F@G@          ",
"            H@I@J@K@L@M@N@O@P@u@Q@R@S@T@U@V@W@X@Y@          ",
"              Z@`@ #.#+#@###$#%#&#*#=#-#;#>#,#'#            ",
"                )#!#~#{#]#^#/#(#_#:#<#[#}#|#1#              ",
"                  2#3#4#5#6#7#7#8#9#0#a#b#                  ",
"                        c#d#e#f#g#h#i#                      ",
"                                                            ",
"                                                            ",
"                                                            "};
