/* XPM */
static char * Exit_xpm[] = {
"30 25 23 1",
" 	c #1900FF",
".	c #0D008F",
"+	c #000000",
"@	c #1600DF",
"#	c #030020",
"$	c #1700EF",
"%	c #090060",
"&	c #0C007F",
"*	c #1400CF",
"=	c #060040",
"-	c #1100AF",
";	c #0A0070",
">	c #0F009F",
",	c #010010",
"'	c #1300BF",
")	c #1000A0",
"!	c #0B0070",
"~	c #050030",
"{	c #1300C0",
"]	c #0D0080",
"^	c #0E0090",
"/	c #1800EF",
"(	c #070050",
"                              ",
" .+++++++++++++++++++++++++++ ",
"  @#+++++++++++++++++++++++++ ",
"   $%++++++++++++++++++++++++ ",
"     &+++++++++++++++++++++++ ",
"      *#+++++++++++++++++++++ ",
"       @=++++++++++++++++++++ ",
"         &+++++++++++++++++++ ",
"          -#+++++++++++++++++ ",
"           @#++++++++++++++++ ",
"             ;+++++++++++++++ ",
"              >,+++++++++++++ ",
"               '+++++++++++++ ",
"              ),+++++++++++++ ",
"             !+++++++++++++++ ",
"           @~++++++++++++++++ ",
"          {,+++++++++++++++++ ",
"         ]+++++++++++++++++++ ",
"       @=++++++++++++++++++++ ",
"      {#+++++++++++++++++++++ ",
"     ^+++++++++++++++++++++++ ",
"   /(++++++++++++++++++++++++ ",
"  *#+++++++++++++++++++++++++ ",
" ^,++++++++++++++++++++++++++ ",
"                              "};
