/* XPM */
static char * player2_xpm[] = {
"30 30 30 1",
" 	c #000000",
".	c #403D00",
"+	c #908B01",
"@	c #CFC902",
"#	c #EFE702",
"$	c #FFF703",
"%	c #9F9A01",
"&	c #BFB902",
"*	c #DFD802",
"=	c #201F00",
"-	c #706C01",
";	c #7F7B01",
">	c #7F7C01",
",	c #201F01",
"'	c #403D01",
")	c #403E01",
"!	c #A09A02",
"~	c #807C02",
"{	c #DFD803",
"]	c #9F9A02",
"^	c #605D01",
"/	c #C0B902",
"(	c #EFE703",
"_	c #605C00",
":	c #CFC802",
"<	c #B0A902",
"[	c #807B02",
"}	c #706C02",
"|	c #D0C902",
"1	c #908B02",
"                              ",
"                              ",
"                              ",
"                              ",
"                              ",
"                              ",
"           .+@#$#@%.          ",
"         .&$$$$$$$$$*=        ",
"        -$$$$$$$$$$$$$;       ",
"       >$$$$$$$$$$$$$$$;      ",
"      .$$$$$$$$$,,$$$$$$'     ",
"      *$$$$$$$$$==$$$$$$*     ",
"      )!$$$$$$$$$$$$$$$$$'    ",
"        ,~{$$$$$$$$$$$$$$]    ",
"           ^/$$$$$$$$$$$$*    ",
"             ,!($$$$$$$$$$    ",
"           =_+@#$$$$$$$$$$    ",
"      =_+&#$$$$$$$$$$$$$$:    ",
"     !$$$$$$$$$$$$$$$$$$$<    ",
"     )$$$$$$$$$$$$$$$$$$$^    ",
"      {$$$$$$$$$$$$$$$$${     ",
"      )$$$$$$$$$$$$$$$$$)     ",
"       ~$$$$$$$$$$$$$$$[      ",
"        ~$$$$$$$$$$$$$}       ",
"         ,{$$$$$$$$$/)        ",
"           )!|($(|1)          ",
"                              ",
"                              ",
"                              ",
"                              "};
