/* XPM */
static char * player2_xpm[] = {
"30 30 22 1",
" 	c #000000",
".	c #404000",
"+	c #303000",
"@	c #DFDF00",
"#	c #FFFF00",
"$	c #808000",
"%	c #8F8F00",
"&	c #BFBF00",
"*	c #CFCF00",
"=	c #101000",
"-	c #202000",
";	c #EFEF00",
">	c #707000",
",	c #606000",
"'	c #AFAF00",
")	c #7F7F00",
"!	c #505000",
"~	c #A0A000",
"{	c #909000",
"]	c #9F9F00",
"^	c #E0E000",
"/	c #D0D000",
"                              ",
"                              ",
"                              ",
"           .+                 ",
"         .@#$                 ",
"        %###&         +       ",
"       *#####=       -;*      ",
"      %######>      =@##%     ",
"     ,#######&      '####.    ",
"     @#######;=    )#####@    ",
"    .#########.   !#######.   ",
"    ~###~=-~##{  -;#######{   ",
"    *###-  =##; =@########@   ",
"    ####=  -###.'#########;   ",
"    ####]-=]###*###########   ",
"    ;######################   ",
"    ^#####################*   ",
"    {#####################]   ",
"    .#####################.   ",
"     @###################@    ",
"     .###################,    ",
"      {#################{     ",
"       *###############*      ",
"        {#############{       ",
"         ,@#########@.        ",
"           .~/##;^{.          ",
"                              ",
"                              ",
"                              ",
"                              "};
