/* XPM */
static char * player3_xpm[] = {
"30 30 30 1",
" 	c #000000",
".	c #403D00",
"+	c #9F9A02",
"@	c #DFD802",
"#	c #FFF703",
"$	c #201F00",
"%	c #403E00",
"&	c #403D01",
"*	c #7F7C01",
"=	c #605C01",
"-	c #A09A01",
";	c #7F7B01",
">	c #908B01",
",	c #706C01",
"'	c #BFB902",
")	c #807C01",
"!	c #EFE703",
"~	c #CFC902",
"{	c #CFC802",
"]	c #201F01",
"^	c #403E01",
"/	c #DFD803",
"(	c #706D01",
"_	c #807B02",
":	c #807C02",
"<	c #605D01",
"[	c #B0A902",
"}	c #D0C902",
"|	c #E0D802",
"1	c #A09A02",
"                              ",
"                              ",
"                              ",
"                              ",
"                              ",
"          .+                  ",
"        .@##$    %@&          ",
"       *####=    -##;         ",
"      *#####>   $####,        ",
"     $######'   )#####&       ",
"     @######!   @#####'       ",
"    %########$ =#######&      ",
"    -########= '#######>      ",
"    ~########>$########{      ",
"    !########{-########!      ",
"    #########!!#########      ",
"    !#############]]###!      ",
"    ~#############$$###{      ",
"    >##################+      ",
"    ^##################&      ",
"     '################/       ",
"     ^################]       ",
"      (##############_        ",
"       :############_         ",
"        ^/########/^          ",
"          <[}##|1^            ",
"                              ",
"                              ",
"                              ",
"                              "};
