/* XPM */
static char * player4_xpm[] = {
"30 30 29 1",
" 	c #000000",
".	c #403D00",
"+	c #9F9A02",
"@	c #DFD802",
"#	c #FFF703",
"$	c #CFC902",
"%	c #AFA902",
"&	c #605C01",
"*	c #403D01",
"=	c #7F7C01",
"-	c #7F7B01",
";	c #706C01",
">	c #201F00",
",	c #BFB902",
"'	c #403E00",
")	c #A09A01",
"!	c #908B01",
"~	c #201F01",
"{	c #CFC802",
"]	c #EFE703",
"^	c #C0B902",
"/	c #403E01",
"(	c #605D01",
"_	c #DFD803",
":	c #807B01",
"<	c #706D01",
"[	c #807B02",
"}	c #807C02",
"|	c #A09A02",
"                              ",
"                              ",
"                              ",
"                              ",
"            .+@##$%&          ",
"          .@########@*        ",
"         =############-       ",
"        =##############;      ",
"       >################*     ",
"       @################,     ",
"      '##################*    ",
"      )##################!    ",
"      $###~~#############{    ",
"      ]###>>#############]    ",
"      #########]]#########    ",
"      ]########+$########]    ",
"      $########~!########{    ",
"      !#######^ &########+    ",
"      /#######( >########*    ",
"       ,#####_   ]######_     ",
"       /#####:   ,######~     ",
"        <####~   !#####[      ",
"         }##+    &####[       ",
"          /_*    >##_/        ",
"                  |/          ",
"                              ",
"                              ",
"                              ",
"                              ",
"                              "};
