/* XPM */
static char * player_xpm[] = {
"30 30 29 1",
" 	c #000000",
".	c #403D00",
"+	c #908B01",
"@	c #CFC902",
"#	c #EFE702",
"$	c #FFF703",
"%	c #9F9A01",
"&	c #BFB902",
"*	c #DFD802",
"=	c #201F00",
"-	c #706C01",
";	c #7F7B01",
">	c #7F7C01",
",	c #201F01",
"'	c #403D01",
")	c #605C01",
"!	c #B0AA02",
"~	c #9F9A02",
"{	c #EFE703",
"]	c #C0B902",
"^	c #908B02",
"/	c #D0C902",
"(	c #E0D802",
"_	c #A09A02",
":	c #403E01",
"<	c #DFD803",
"[	c #807C02",
"}	c #807B02",
"|	c #706C02",
"                              ",
"                              ",
"                              ",
"                              ",
"                              ",
"                              ",
"           .+@#$#@%.          ",
"         .&$$$$$$$$$*=        ",
"        -$$$$$$$$$$$$$;       ",
"       >$$$$$$$$$$$$$$$;      ",
"      .$$$$$$$$$,,$$$$$$'     ",
"      *$$$$$$$$$==$$$$$$*     ",
"     )$$$$$$$$$$$$$$$$$$$'    ",
"     !$$$$$$$$$$$$$$$$$$$~    ",
"     @$$$$$$$$$$$$$${]^),     ",
"     $$$$$$$$$${/^),          ",
"     $$$$$$$$$$#%=            ",
"     ($$$$$$$$$$$$&)          ",
"     _$$$$$$$$$$$$$$*;=       ",
"     :$$$$$$$$$$$$$$$$$%.     ",
"      <$$$$$$$$$$$$$$$$$<     ",
"      :$$$$$$$$$$$$$$$$$:     ",
"       [$$$$$$$$$$$$$$$}      ",
"        [$$$$$$$$$$$$$|       ",
"         ,<$$$$$$$$$]:        ",
"           :_/{${/^:          ",
"                              ",
"                              ",
"                              ",
"                              "};
