/* XPM */
static char * player_xpm[] = {
"30 30 22 1",
" 	c #000000",
".	c #404000",
"+	c #909000",
"@	c #DFDF00",
"#	c #EFEF00",
"$	c #FFFF00",
"%	c #CFCF00",
"&	c #9F9F00",
"*	c #606000",
"=	c #8F8F00",
"-	c #A0A000",
";	c #101000",
">	c #202000",
",	c #C0C000",
"'	c #808000",
")	c #303000",
"!	c #707000",
"~	c #AFAF00",
"{	c #E0E000",
"]	c #505000",
"^	c #7F7F00",
"/	c #D0D000",
"                              ",
"                              ",
"                              ",
"                              ",
"           .+@#$$%&.          ",
"         .@$$$$$$$$$@*        ",
"        =$$$$$$$$$$$$$=       ",
"       %$$$$$$$$$$$$$$$%      ",
"      =$$$$$$$$-;>-$$$$$=     ",
"     *$$$$$$$$$>  ;$$$$$$.    ",
"     @$$$$$$$$$;  >$$$$$$@    ",
"    .$$$$$$$$$$&>;&$$$$$$$.   ",
"    -$$$$$$$$$$$$$$$$$$$,')   ",
"    %$$$$$$$$$$$$$$$#,!;      ",
"    $$$$$$$$$$$$$#+.;         ",
"    $$$$$$$$$$$%.             ",
"    #$$$$$$$$$$$~;            ",
"    {$$$$$$$$$$$$@>           ",
"    +$$$$$$$$$$$$$#]          ",
"    .$$$$$$$$$$$$$$$^         ",
"     @$$$$$$$$$$$$$$$~;       ",
"     .$$$$$$$$$$$$$$$$@>      ",
"      +$$$$$$$$$$$$$$$$#)     ",
"       %$$$$$$$$$$$$$$$%      ",
"        +$$$$$$$$$$$$$+       ",
"         *@$$$$$$$$$@.        ",
"           .-/$$#{+.          ",
"                              ",
"                              ",
"                              "};
