/* XPM */
static char * Exit_xpm[] = {
"91 54 37 1",
" 	c None",
".	c #000000",
"+	c #400000",
"@	c #BF0000",
"#	c #F60202",
"$	c #FF0000",
"%	c #D30808",
"&	c #B80D0D",
"*	c #FB0101",
"=	c #DC0606",
"-	c #BC0C0C",
";	c #200000",
">	c #A00000",
",	c #100000",
"'	c #8F0000",
")	c #7F0000",
"!	c #EB0101",
"~	c #EF0000",
"{	c #E00505",
"]	c #E40505",
"^	c #C10C0C",
"/	c #ED0303",
"(	c #CA0909",
"_	c #700000",
":	c #600000",
"<	c #DF0000",
"[	c #E00606",
"}	c #D20808",
"|	c #300000",
"1	c #800000",
"2	c #DB0707",
"3	c #CE0909",
"4	c #FA0101",
"5	c #D70707",
"6	c #CA0A0A",
"7	c #900000",
"8	c #CF0000",
"........................................................................................+@ ",
"......................................................................................+@#$ ",
"....................................................................................+@#%&$ ",
"..................................................................................+@*=-&&$ ",
"................................................................................;@*=-&&&&$ ",
"..............................................................................;>*=-&&&&&&$ ",
"............................................................................;>*=-&&&&&&&&$ ",
"..........................................................................,'*=-&&&&&&&&&&$ ",
"........................................................................,)!=-&&&&&&&&&&&&$ ",
"......................................................................,)!=-&&&&&&&&&&&&&&$ ",
"....................................................................,)!=-&&&&&&&&&&&&&&&&$ ",
"..................................................................,)~{-&&&&&&&&&&&&&&&&&&$ ",
"................................................................,)~]^&&&&&&&&&&&&&&&&&&&&$ ",
"..............................................................,)~]^&&&&&&&&&&&&&&&&&&&&&&$ ",
"............................................................,)~]^&&&&&&&&&&&&&&&&&&&&&&&&$ ",
"..........................................................,)~/(&&&&&&&&&&&&&&&&&&&&&&&&&&$ ",
"........................................................._~/(&&&&&&&&&&&&&&&&&&&&&&&&&&&&$ ",
".......................................................:</(&&&&&&&&&&&&&&&&&&&&&&&&&&&&&&$ ",
".....................................................:</(&&&&&&&&&&&&&&&&&&&&&&&&&&&&&&&&$ ",
"...................................................+</(&&&&&&&&&&&&&&&&&&&&&&&&&&&&&&&&&&$ ",
".................................................+@/(&&&&&&&&&&&&&&&&&&&&&&&&&&&&&&&&&&&&$ ",
"...............................................+@/(&&&&&&&&&&&&&&&&&&&&&&&&&&&&&&&&&&&&&&$ ",
".............................................+@/(&&&&&&&&&&&&&&&&&&&&&&&&&&&&&&&&&&&&&&&&$ ",
"...........................................+@#(&&&&&&&&&&&&&&&&&&&&&&&&&&&&&&&&&&&&&&&&&&$ ",
"...........................................:<[^&&&&&&&&&&&&&&&&&&&&&&&&&&&&&&&&&&&&&&&&&&$ ",
"............................................;>#}&&&&&&&&&&&&&&&&&&&&&&&&&&&&&&&&&&&&&&&&&$ ",
"..............................................|<]^&&&&&&&&&&&&&&&&&&&&&&&&&&&&&&&&&&&&&&&$ ",
"................................................1#}&&&&&&&&&&&&&&&&&&&&&&&&&&&&&&&&&&&&&&$ ",
".................................................;</^&&&&&&&&&&&&&&&&&&&&&&&&&&&&&&&&&&&&$ ",
"..................................................._~2&&&&&&&&&&&&&&&&&&&&&&&&&&&&&&&&&&&$ ",
"....................................................;>#^&&&&&&&&&&&&&&&&&&&&&&&&&&&&&&&&&$ ",
"......................................................:<[-&&&&&&&&&&&&&&&&&&&&&&&&&&&&&&&$ ",
".......................................................;>#}&&&&&&&&&&&&&&&&&&&&&&&&&&&&&&$ ",
".........................................................+<]^&&&&&&&&&&&&&&&&&&&&&&&&&&&&$ ",
"...........................................................1#}&&&&&&&&&&&&&&&&&&&&&&&&&&&$ ",
"............................................................;</^&&&&&&&&&&&&&&&&&&&&&&&&&$ ",
"..............................................................1~2&&&&&&&&&&&&&&&&&&&&&&&&$ ",
"...............................................................;>#^&&&&&&&&&&&&&&&&&&&&&&$ ",
".................................................................:<2-&&&&&&&&&&&&&&&&&&&&$ ",
"..................................................................;>#3&&&&&&&&&&&&&&&&&&&$ ",
"....................................................................:<]^&&&&&&&&&&&&&&&&&$ ",
".....................................................................,1#}&&&&&&&&&&&&&&&&$ ",
".......................................................................;<]^&&&&&&&&&&&&&&$ ",
".........................................................................145&&&&&&&&&&&&&$ ",
"..........................................................................;@#^&&&&&&&&&&&$ ",
"............................................................................:<2&&&&&&&&&&$ ",
".............................................................................;>#6&&&&&&&&$ ",
"...............................................................................:<]^&&&&&&$ ",
"................................................................................,7#}&&&&&$ ",
"..................................................................................;<]^&&&$ ",
"....................................................................................145&&$ ",
".....................................................................................;8#^$ ",
".......................................................................................:<$ ",
"........................................................................................;> "};
