/* XPM */
static char * Group 1_xpm[] = {
"72 65 64 1",
" 	c None",
".	c #050505",
"+	c #151405",
"@	c #434105",
"#	c #726E04",
"$	c #928D04",
"%	c #B0AB04",
"&	c #E0D804",
"*	c #FFF703",
"=	c #EFE703",
"-	c #D0C904",
";	c #C0BA04",
">	c #817D04",
",	c #DFD803",
"'	c #242305",
")	c #A19C04",
"!	c #333205",
"~	c #D0C903",
"{	c #333204",
"]	c #918C04",
"^	c #918D04",
"/	c #B0AB03",
"(	c #CFC903",
"_	c #706C01",
":	c #605C01",
"<	c #A09A02",
"[	c #000000",
"}	c #101000",
"|	c #CFC902",
"1	c #434104",
"2	c #E0D803",
"3	c #101001",
"4	c #9F9A02",
"5	c #BFB902",
"6	c #807B01",
"7	c #AFA902",
"8	c #C0BA03",
"9	c #201F00",
"0	c #DFD802",
"a	c #403D00",
"b	c #635F04",
"c	c #726F04",
"d	c #B1AB04",
"e	c #EFE803",
"f	c #C1BB03",
"g	c #343304",
"h	c #928D03",
"i	c #636004",
"j	c #242404",
"k	c #E0D903",
"l	c #D1CA03",
"m	c #625F04",
"n	c #535005",
"o	c #343205",
"p	c #827E04",
"q	c #A19C03",
"r	c #242304",
"s	c #DFD903",
"t	c #151404",
"u	c #444204",
"v	c #827E03",
"w	c #D0CA03",
"x	c #726F03",
"y	c #B1AC03",
" ..........................+@#$%&&****=-;$#@+.......................... ",
" .......................@>;******************-$@....................... ",
" ....................+>&************************,$'.................... ",
" ..................@)******************************)'.................. ",
" ................')**********************************)'................ ",
" ...............>=*************************************>+.............. ",
" .............!~****************************************,{............. ",
" ............#=*******************************************>............ ",
" ...........]**********************************************^+.......... ",
" .........+%************************************************~+......... ",
" ........+~**************************************************,+........ ",
" ........%****************************************************~+....... ",
" .......]******************************************************/....... ",
" ......>**********************************(_:_,*****************>...... ",
" .....'**********************************<[[[[}|*****************1..... ",
" .....2*********************************,3[[[[[}=****************,+.... ",
" ....>**********************************4[[[[[[[5*****************^.... ",
" ...'***********************************6[[[[[[[<******************1... ",
" ...)***********************************7[[[[[[[5******************8... ",
" ..'************************************=9[[[[[9********************1.. ",
" ..)*************************************09[[[a0********************%.. ",
" ..2***************************************545***********************+. ",
" .b******************************************************************c. ",
" .d******************************************************************8. ",
" .e*******************************************************************+ ",
" @******************************************************************efg ",
" c*************************************************************efhij... ",
" d********************************************************efhij........ ",
" ;***************************************************efhij............. ",
" k**********************************************efhij.................. ",
" ******************************************elhig....................... ",
" *************************************elhig............................ ",
" ***********************************8g................................. ",
" ************************************,)'............................... ",
" ***************************************;m............................. ",
" k****************************************,>'.......................... ",
" ~*******************************************%n........................ ",
" )*********************************************,m'..................... ",
" c************************************************)@................... ",
" o**************************************************,m'................ ",
" .e****************************************************)@.............. ",
" .)******************************************************,m'........... ",
" .1*********************************************************)@......... ",
" .+e**********************************************************,m'...... ",
" ..p*************************************************************)!.... ",
" ..+***************************************************************-... ",
" ...h**************************************************************q... ",
" ...+e*************************************************************r... ",
" ....p************************************************************h.... ",
" .....~**********************************************************st.... ",
" .....re*********************************************************u..... ",
" ......c********************************************************v...... ",
" .......h******************************************************h....... ",
" ........q****************************************************w........ ",
" .........q**************************************************wt........ ",
" ..........q************************************************wt......... ",
" ...........v**********************************************q........... ",
" ............ce*******************************************x............ ",
" .............rk****************************************s{............. ",
" ...............ve************************************evt.............. ",
" ................rq**********************************/r................ ",
" ..................rq******************************qu.................. ",
" ....................ril************************kvt.................... ",
" .......................rcf*****************efvu....................... ",
" ...........................gihyfke**eklyhcgt.......................... "};
