/* XPM */
static char * Rectangle 4_xpm[] = {
"81 54 2 1",
" 	c #0022FF",
".	c #000CF6",
"                                                                                 ",
" ............................................................................... ",
" ............................................................................... ",
" ............................................................................... ",
" ............................................................................... ",
" ............................................................................... ",
" ............................................................................... ",
" ............................................................................... ",
" ............................................................................... ",
" ............................................................................... ",
" ............................................................................... ",
" ............................................................................... ",
" ............................................................................... ",
" ............................................................................... ",
" ............................................................................... ",
" ............................................................................... ",
" ............................................................................... ",
" ............................................................................... ",
" ............................................................................... ",
" ............................................................................... ",
" ............................................................................... ",
" ............................................................................... ",
" ............................................................................... ",
" ............................................................................... ",
" ............................................................................... ",
" ............................................................................... ",
" ............................................................................... ",
" ............................................................................... ",
" ............................................................................... ",
" ............................................................................... ",
" ............................................................................... ",
" ............................................................................... ",
" ............................................................................... ",
" ............................................................................... ",
" ............................................................................... ",
" ............................................................................... ",
" ............................................................................... ",
" ............................................................................... ",
" ............................................................................... ",
" ............................................................................... ",
" ............................................................................... ",
" ............................................................................... ",
" ............................................................................... ",
" ............................................................................... ",
" ............................................................................... ",
" ............................................................................... ",
" ............................................................................... ",
" ............................................................................... ",
" ............................................................................... ",
" ............................................................................... ",
" ............................................................................... ",
" ............................................................................... ",
" ............................................................................... ",
"                                                                                 "};
